<?xml version="1.0" encoding="UTF-8"?><svg id="Layer_1" xmlns="http://www.w3.org/2000/svg" width="902.22" height="489.67" viewBox="0 0 902.22 489.67"><path d="M77.89,348.32L0,138.03h48.82l50.03,147.68,50.02-147.68h48.82l-77.88,210.29h-41.94Z" fill="#00837f" stroke-width="0"/><path d="M314.52,352.51c-73.99,0-109.34-52.12-109.34-109.04s35.35-109.04,109.34-109.04,109.34,52.12,109.34,109.04-35.35,109.04-109.34,109.04ZM376.23,243.47c0-35.05-21.87-67.1-61.71-67.1s-61.71,32.05-61.71,67.1,21.87,67.1,61.71,67.1,61.71-32.05,61.71-67.1Z" fill="#5f5ba3" stroke-width="0"/><path d="M459.2,347.72v-209.69h46.13v209.69h-46.13Z" fill="#dc2680" stroke-width="0"/><path d="M735.38,305.18c-18.57,27.26-44.63,47.33-88.37,47.33-71.59,0-106.34-54.22-106.34-109.64,0-58.41,38.34-108.44,107.24-108.44,63.8,0,84.17,42.54,84.17,42.54l-30.56,26.36s-12.88-26.96-53.02-26.96c-42.24,0-59.61,29.36-59.61,67.4s16.77,66.8,56.31,66.8,57.51-30.25,57.51-30.25l32.65,24.86Z" fill="#eb631a" stroke-width="0"/><path d="M763.23,347.72v-209.69h134.2v41.34h-88.07v38.34h82.08v41.34h-82.08v47.33h92.86v41.34h-138.99Z" fill="#f8ae15" stroke-width="0"/><path d="M653.09,97.99c5.03-22.27,12.49-56.34,16.43-74.5,0,0,5.11-23.48,5.11-23.48-24.61,18.45-50.45,37.44-74.94,55.9l-52.58,39.71c-181.33-.18-366.02,1.52-547.12,9.96,182.21,8.5,368.04,10.17,550.45,9.96h3.4s2.64-2.03,2.64-2.03c26.2-20.07,61.56-47.17,90.75-69.87-1.75,8.98-3.55,18.27-3.55,18.27-1.27,6.9-8.58,45.64-9.68,51.64,0,0,9.4-.2,9.4-.2,82.27-1.5,168.62-3.69,250.73-7.77-78.94-3.92-161.67-6.09-241.04-7.58Z" fill="#106b8e" stroke-width="0"/><path d="M902.22,384.1c-182.21-8.5-368.04-10.17-550.45-9.96h-3.4s-2.64,2.03-2.64,2.03c-26.2,20.07-61.56,47.17-90.75,69.87,1.75-8.98,3.55-18.27,3.55-18.27,1.27-6.9,8.58-45.64,9.68-51.64,0,0-9.4.2-9.4.19-82.27,1.5-168.62,3.69-250.73,7.77,78.94,3.92,161.67,6.09,241.04,7.58-5.03,22.27-12.49,56.34-16.43,74.5l-5.11,23.48c24.61-18.45,50.45-37.44,74.94-55.9l52.58-39.71c181.33.18,366.02-1.51,547.12-9.96Z" fill="#106b8e" stroke-width="0"/></svg>